<svg xmlns="http://www.w3.org/2000/svg" width="17" height="17" viewBox="0 0 17 17">
  <g id="Groupe_262" data-name="Groupe 262" transform="translate(-242 -409.504)">
    <circle id="Ellipse_14" data-name="Ellipse 14" cx="8.5" cy="8.5" r="8.5" transform="translate(242 409.504)" fill="#3a7afe"/>
    <g id="check" transform="translate(245.463 414.669)">
      <path id="Tracé_242" data-name="Tracé 242" d="M5.817,11.384a.481.481,0,0,1-.68,0L2.419,8.667a.722.722,0,0,1,0-1.021l.34-.34a.722.722,0,0,1,1.021,0L5.476,9,10.06,4.418a.722.722,0,0,1,1.021,0l.34.34a.722.722,0,0,1,0,1.021Z" transform="translate(-2.208 -4.207)" fill="#f3f5f4"/>
    </g>
  </g>
</svg>
