<svg xmlns="http://www.w3.org/2000/svg" width="21.234" height="21" viewBox="0 0 21.234 21">
  <g id="cv" transform="translate(-29.801)">
    <path id="Tracé_259" data-name="Tracé 259" d="M50.331,15.9H48.5V.615A.664.664,0,0,0,47.8,0H30.505a.664.664,0,0,0-.7.615V18.172A3.056,3.056,0,0,0,33.037,21H47.8a3.056,3.056,0,0,0,3.236-2.828V16.516A.664.664,0,0,0,50.331,15.9Zm-15.466.615v1.656c-.1,2.12-3.556,2.118-3.656,0V1.23H47.095V15.9H35.569A.664.664,0,0,0,34.865,16.516Zm14.762,1.656a1.726,1.726,0,0,1-1.828,1.6H35.706a2.573,2.573,0,0,0,.567-1.6V17.131H49.627v1.041Z"/>
    <path id="Tracé_260" data-name="Tracé 260" d="M260.824,92.978h2.813a.615.615,0,0,0,0-1.23h-2.813A.615.615,0,0,0,260.824,92.978Z" transform="translate(-219.217 -87.985)"/>
    <path id="Tracé_261" data-name="Tracé 261" d="M263.637,159.779h-2.813a.615.615,0,0,0,0,1.23h2.813A.615.615,0,0,0,263.637,159.779Z" transform="translate(-219.217 -153.226)"/>
    <path id="Tracé_262" data-name="Tracé 262" d="M263.637,227.812h-2.813a.615.615,0,0,0,0,1.23h2.813A.615.615,0,0,0,263.637,227.812Z" transform="translate(-219.217 -218.468)"/>
    <path id="Tracé_263" data-name="Tracé 263" d="M100.332,295.844h-9.8a.615.615,0,0,0,0,1.23h9.8A.615.615,0,0,0,100.332,295.844Z" transform="translate(-57.656 -283.71)"/>
    <path id="Tracé_264" data-name="Tracé 264" d="M90.46,98.56h4.422a.615.615,0,0,0,.615-.615v-.5A2.823,2.823,0,0,0,94.253,95.1a2.051,2.051,0,1,0-3.165,0,2.823,2.823,0,0,0-1.244,2.339v.5A.615.615,0,0,0,90.46,98.56Zm2.211-5.581a.822.822,0,1,1-.822.82A.822.822,0,0,1,92.671,92.979Zm0,2.87h0a1.6,1.6,0,0,1,1.59,1.48H91.079A1.6,1.6,0,0,1,92.669,95.849Z" transform="translate(-57.581 -87.985)"/>
  </g>
</svg>
