<svg id="clock_2_" data-name="clock (2)" xmlns="http://www.w3.org/2000/svg" width="19.702" height="19.702" viewBox="0 0 19.702 19.702">
  <g id="Groupe_172" data-name="Groupe 172" transform="translate(9.088 4.571)">
    <g id="Groupe_171" data-name="Groupe 171">
      <path id="Tracé_226" data-name="Tracé 226" d="M240.442,125.8l-2.747-2.06v-4.2a.763.763,0,0,0-1.526,0v4.578a.761.761,0,0,0,.305.61l3.052,2.289a.763.763,0,0,0,.916-1.221Z" transform="translate(-236.169 -118.779)" fill="#fff"/>
    </g>
  </g>
  <g id="Groupe_174" data-name="Groupe 174">
    <g id="Groupe_173" data-name="Groupe 173">
      <path id="Tracé_227" data-name="Tracé 227" d="M9.851,0A9.851,9.851,0,1,0,19.7,9.851,9.862,9.862,0,0,0,9.851,0Zm0,18.176a8.325,8.325,0,1,1,8.325-8.325A8.335,8.335,0,0,1,9.851,18.176Z" fill="#fff"/>
    </g>
  </g>
</svg>
