<svg xmlns="http://www.w3.org/2000/svg" width="20.212" height="19.917" viewBox="0 0 20.212 19.917">
  <path id="home_3_" data-name="home (3)" d="M17.921,8.01h0L10.407.5a1.7,1.7,0,0,0-2.4,0L.5,8l-.008.008A1.695,1.695,0,0,0,1.62,10.9l.052,0h.3v5.529a1.987,1.987,0,0,0,1.984,1.984H6.9a.54.54,0,0,0,.54-.54V13.543a.906.906,0,0,1,.905-.905h1.734a.906.906,0,0,1,.905.905v4.335a.54.54,0,0,0,.54.54h2.939a1.987,1.987,0,0,0,1.984-1.984V10.9h.278a1.7,1.7,0,0,0,1.2-2.894Zm0,0" transform="translate(0.898 0.751)" fill="none" stroke="#fff" stroke-width="1.5"/>
</svg>
