<svg xmlns="http://www.w3.org/2000/svg" width="11.786" height="18.68" viewBox="0 0 11.786 18.68"><path id="Tracé_9" data-name="Tracé 9" d="M151.813,763.577v-1.766a4.728,4.728,0,1,0-9.435,0v.459H143.8v-.459a3.587,3.587,0,0,1,1.617-3.148,3.118,3.118,0,0,1,3.361,0,3.587,3.587,0,0,1,1.617,3.148v1.766h-9.2v9.563a2.237,2.237,0,0,0,2.16,2.308h7.468a2.238,2.238,0,0,0,2.156-2.308v-9.563Zm-3.079,8.685H145.46l.563-3.084a1.879,1.879,0,0,1-.7-1.449,1.751,1.751,0,1,1,3.495,0,1.879,1.879,0,0,1-.7,1.449Z" transform="translate(-141.199 -756.768)" fill="#3a7afe" opacity="0.7"/>    </svg>