<svg id="calendar-and-clock-time-administration-and-organization-tools-symbol_2_" data-name="calendar-and-clock-time-administration-and-organization-tools-symbol (2)" xmlns="http://www.w3.org/2000/svg" width="29.845" height="29.845" viewBox="0 0 29.845 29.845">
  <g id="Groupe_278" data-name="Groupe 278">
    <path id="Tracé_245" data-name="Tracé 245" d="M330.019,322.79a7.231,7.231,0,0,0-7.228-7.228c-.157,0-.312.007-.466.017a7.228,7.228,0,0,0-6.715,6.4,7.189,7.189,0,0,0,.113,2.332,7.228,7.228,0,0,0,14.3-1.516Zm-7.228,4.78a4.78,4.78,0,1,1,4.78-4.78A4.78,4.78,0,0,1,322.791,327.57Z" transform="translate(-300.174 -300.173)" fill="#f1efde"/>
    <path id="Tracé_246" data-name="Tracé 246" d="M401.041,396.844h-1.632v2.565h-2.565v1.632h4.2v-1.632h0Z" transform="translate(-377.492 -377.492)" fill="#f1efde"/>
    <path id="Tracé_247" data-name="Tracé 247" d="M94.051,0a.817.817,0,0,0-.816.816V4.663a.817.817,0,0,0,.816.816h.7a.817.817,0,0,0,.816-.816V.816A.817.817,0,0,0,94.751,0Z" transform="translate(-88.688)" fill="#f1efde"/>
    <path id="Tracé_248" data-name="Tracé 248" d="M357.02,0a.817.817,0,0,0-.816.816V4.663a.817.817,0,0,0,.816.816h.7a.817.817,0,0,0,.816-.816V.816A.817.817,0,0,0,357.719,0Z" transform="translate(-338.833)" fill="#f1efde"/>
    <path id="Tracé_249" data-name="Tracé 249" d="M1.865,76.435H13.407a8.86,8.86,0,0,1-.174-1.749c0-.2.009-.39.021-.583H3.5a1.4,1.4,0,0,1-1.4-1.4V61.513H22.15v4.326c.154-.008.31-.012.466-.012a8.862,8.862,0,0,1,1.632.153v-9.13a1.865,1.865,0,0,0-1.865-1.865H20.868v1.982a1.984,1.984,0,0,1-1.982,1.982h-.7A1.984,1.984,0,0,1,16.2,56.966V54.984H8.044v1.982a1.984,1.984,0,0,1-1.982,1.982h-.7a1.984,1.984,0,0,1-1.982-1.982V54.984H1.865A1.865,1.865,0,0,0,0,56.849V74.57A1.865,1.865,0,0,0,1.865,76.435Z" transform="translate(0 -52.303)" fill="#f1efde"/>
    <circle id="Ellipse_15" data-name="Ellipse 15" cx="1.851" cy="1.851" r="1.851" transform="translate(4.722 10.856)" fill="#f1efde"/>
    <circle id="Ellipse_16" data-name="Ellipse 16" cx="1.851" cy="1.851" r="1.851" transform="translate(10.274 10.856)" fill="#f1efde"/>
    <circle id="Ellipse_17" data-name="Ellipse 17" cx="1.851" cy="1.851" r="1.851" transform="translate(15.826 10.856)" fill="#f1efde"/>
    <circle id="Ellipse_18" data-name="Ellipse 18" cx="1.851" cy="1.851" r="1.851" transform="translate(10.274 16.452)" fill="#f1efde"/>
    <circle id="Ellipse_19" data-name="Ellipse 19" cx="1.851" cy="1.851" r="1.851" transform="translate(4.722 16.452)" fill="#f1efde"/>
  </g>
</svg>
