<svg xmlns="http://www.w3.org/2000/svg" width="24" height="20" viewBox="0 0 24 20">
  <g id="briefcase" transform="translate(0 -2)">
    <path id="Tracé_251" data-name="Tracé 251" d="M15,6.5a1,1,0,0,1-1-1V4H10V5.5a1,1,0,0,1-2,0V4a2,2,0,0,1,2-2h4a2,2,0,0,1,2,2V5.5A1,1,0,0,1,15,6.5Z" fill="#f1efde"/>
    <path id="Tracé_252" data-name="Tracé 252" d="M18,12.5v.92a.75.75,0,1,1-1.5,0V12.5h-9v.92a.75.75,0,1,1-1.5,0V12.5H0v6.75A2.748,2.748,0,0,0,2.75,22h18.5A2.748,2.748,0,0,0,24,19.25V12.5ZM21.25,5H2.75A2.748,2.748,0,0,0,0,7.75V11H6V9.75a.75.75,0,0,1,1.5,0V11h9V9.75a.75.75,0,0,1,1.5,0V11h6V7.75A2.748,2.748,0,0,0,21.25,5Z" fill="#f1efde"/>
  </g>
</svg>
