<svg xmlns="http://www.w3.org/2000/svg" width="21" height="21" viewBox="0 0 21 21">
  <g id="settings_2_" data-name="settings (2)" transform="translate(0 0)">
    <path id="Tracé_230" data-name="Tracé 230" d="M11.159,21H9.841a1.935,1.935,0,0,1-1.933-1.933v-.446a8.478,8.478,0,0,1-1.316-.546l-.316.316a1.933,1.933,0,0,1-2.734,0l-.932-.931a1.933,1.933,0,0,1,0-2.734l.316-.316a8.478,8.478,0,0,1-.546-1.316H1.933A1.935,1.935,0,0,1,0,11.159V9.841A1.935,1.935,0,0,1,1.933,7.908h.446a8.48,8.48,0,0,1,.546-1.316L2.61,6.275a1.933,1.933,0,0,1,0-2.734l.932-.932a1.933,1.933,0,0,1,2.734,0l.316.316a8.486,8.486,0,0,1,1.316-.546V1.933A1.935,1.935,0,0,1,9.841,0h1.318a1.935,1.935,0,0,1,1.933,1.933v.446a8.478,8.478,0,0,1,1.316.546l.316-.316a1.933,1.933,0,0,1,2.734,0l.932.931a1.933,1.933,0,0,1,0,2.734l-.316.316a8.479,8.479,0,0,1,.546,1.316h.446A1.935,1.935,0,0,1,21,9.841v1.318a1.935,1.935,0,0,1-1.933,1.933h-.446a8.48,8.48,0,0,1-.546,1.316l.316.316a1.933,1.933,0,0,1,0,2.734l-.932.932a1.933,1.933,0,0,1-2.734,0l-.316-.316a8.486,8.486,0,0,1-1.316.546v.446A1.935,1.935,0,0,1,11.159,21ZM6.8,16.782a7.252,7.252,0,0,0,1.88.78.615.615,0,0,1,.462.6v.908a.7.7,0,0,0,.7.7h1.318a.7.7,0,0,0,.7-.7v-.908a.615.615,0,0,1,.462-.6,7.252,7.252,0,0,0,1.88-.78.615.615,0,0,1,.748.095l.643.643a.7.7,0,0,0,.994,0l.932-.932a.7.7,0,0,0,0-.994l-.644-.644a.615.615,0,0,1-.095-.748,7.251,7.251,0,0,0,.78-1.88.615.615,0,0,1,.6-.461h.908a.7.7,0,0,0,.7-.7V9.841a.7.7,0,0,0-.7-.7h-.908a.615.615,0,0,1-.6-.461,7.252,7.252,0,0,0-.78-1.88.615.615,0,0,1,.095-.748l.643-.643a.7.7,0,0,0,0-.994l-.932-.932a.7.7,0,0,0-.994,0l-.644.644a.615.615,0,0,1-.748.095,7.252,7.252,0,0,0-1.88-.78.615.615,0,0,1-.462-.6V1.933a.7.7,0,0,0-.7-.7H9.841a.7.7,0,0,0-.7.7v.908a.615.615,0,0,1-.462.6,7.252,7.252,0,0,0-1.88.78.615.615,0,0,1-.748-.095L5.405,3.48a.7.7,0,0,0-.994,0l-.932.932a.7.7,0,0,0,0,.994l.644.644a.615.615,0,0,1,.095.748,7.251,7.251,0,0,0-.78,1.88.615.615,0,0,1-.6.461H1.933a.7.7,0,0,0-.7.7v1.318a.7.7,0,0,0,.7.7h.908a.615.615,0,0,1,.6.461,7.252,7.252,0,0,0,.78,1.88.615.615,0,0,1-.095.748l-.643.643a.7.7,0,0,0,0,.994l.932.932a.7.7,0,0,0,.994,0l.644-.644a.618.618,0,0,1,.748-.094Z" fill="#fff"/>
    <path id="Tracé_231" data-name="Tracé 231" d="M149.169,153.738a4.569,4.569,0,1,1,4.569-4.569A4.574,4.574,0,0,1,149.169,153.738Zm0-7.908a3.339,3.339,0,1,0,3.339,3.339A3.342,3.342,0,0,0,149.169,145.83Z" transform="translate(-138.669 -138.669)" fill="#fff"/>
  </g>
</svg>
