<svg xmlns="http://www.w3.org/2000/svg" width="19.702" height="20.413" viewBox="0 0 19.702 20.413">
  <g id="user_6_" data-name="user (6)" transform="translate(0 0)">
    <path id="Tracé_228" data-name="Tracé 228" d="M92.115,10.031a4.952,4.952,0,0,0,3.594-1.469A4.821,4.821,0,0,0,97.2,5.015a4.821,4.821,0,0,0-1.489-3.546,5.131,5.131,0,0,0-7.188,0,4.821,4.821,0,0,0-1.489,3.546,4.821,4.821,0,0,0,1.489,3.546A4.954,4.954,0,0,0,92.115,10.031ZM89.4,2.332a3.882,3.882,0,0,1,5.439,0,3.6,3.6,0,0,1,1.127,2.683A3.6,3.6,0,0,1,94.834,7.7a3.881,3.881,0,0,1-5.439,0,3.6,3.6,0,0,1-1.127-2.683A3.6,3.6,0,0,1,89.4,2.332Zm0,0" transform="translate(-82.264 0)"/>
    <path id="Tracé_229" data-name="Tracé 229" d="M19.654,253.27a11,11,0,0,0-.191-1.316,9.367,9.367,0,0,0-.367-1.323,6.171,6.171,0,0,0-.617-1.234,4.774,4.774,0,0,0-.93-1.069,4.211,4.211,0,0,0-1.336-.74,5.17,5.17,0,0,0-1.705-.272,1.867,1.867,0,0,0-.924.346c-.277.159-.6.344-.963.547a5.912,5.912,0,0,1-1.246.484,5.456,5.456,0,0,1-3.048,0,5.893,5.893,0,0,1-1.245-.484c-.358-.2-.683-.386-.964-.548a1.865,1.865,0,0,0-.924-.346,5.163,5.163,0,0,0-1.705.272,4.208,4.208,0,0,0-1.336.74,4.774,4.774,0,0,0-.93,1.069,6.183,6.183,0,0,0-.617,1.234,9.389,9.389,0,0,0-.367,1.323,10.925,10.925,0,0,0-.191,1.316c-.031.4-.047.811-.047,1.23a3.256,3.256,0,0,0,1.165,2.616,4.532,4.532,0,0,0,3,.965H15.536a4.532,4.532,0,0,0,3-.965A3.255,3.255,0,0,0,19.7,254.5c0-.42-.016-.833-.048-1.23Zm-2.071,2.962a3.058,3.058,0,0,1-2.047.629H4.165a3.059,3.059,0,0,1-2.047-.629,2.119,2.119,0,0,1-.735-1.732c0-.39.015-.775.044-1.145A9.855,9.855,0,0,1,1.6,252.17,8.281,8.281,0,0,1,1.923,251a5.034,5.034,0,0,1,.5-1,3.536,3.536,0,0,1,.683-.79A2.8,2.8,0,0,1,4,248.723a3.562,3.562,0,0,1,1.09-.185c.048.023.135.066.275.146.284.163.612.35.975.554a7.336,7.336,0,0,0,1.564.616,7.016,7.016,0,0,0,3.9,0,7.345,7.345,0,0,0,1.565-.617c.371-.209.69-.39.974-.554.14-.08.226-.124.275-.146a3.564,3.564,0,0,1,1.09.185,2.8,2.8,0,0,1,.889.487,3.526,3.526,0,0,1,.683.79,5.017,5.017,0,0,1,.5,1,8.261,8.261,0,0,1,.323,1.166,9.937,9.937,0,0,1,.173,1.185h0c.029.368.044.753.044,1.145a2.119,2.119,0,0,1-.735,1.732Zm0,0" transform="translate(0 -237.667)"/>
  </g>
</svg>
